<svg width="201" height="61" viewBox="0 0 201 61" fill="none" xmlns="http://www.w3.org/2000/svg">
<path d="M42.38 42.7677C30.6694 42.7677 21.1758 33.2741 21.1758 21.5635H42.38V42.7677Z" fill="#3679D9"/>
<path d="M42.38 21.5631V0.358643H21.1758" fill="#3679D9"/>
<path d="M21.1989 0.324707C15.5765 0.324707 10.1846 2.55812 6.20902 6.53373C2.23341 10.5093 0 15.9012 0 21.5236C0 27.1458 2.23341 32.5379 6.20902 36.5135C10.1846 40.4892 15.5765 42.7226 21.1989 42.7226V21.5236V0.324707Z" fill="#3679D9"/>
<path d="M94.0027 38.4231C93.2842 38.8888 92.4144 39.403 91.3931 39.9657C90.3911 40.5284 89.2282 41.0526 87.9046 41.5377C86.5998 42.0228 85.1251 42.4206 83.4799 42.731C81.8538 43.0609 80.0479 43.2259 78.0626 43.2259C74.7913 43.2259 71.8416 42.702 69.2132 41.6541C66.5848 40.6063 64.3442 39.141 62.4911 37.2588C60.638 35.357 59.2104 33.0961 58.2083 30.4766C57.206 27.8567 56.7051 24.975 56.7051 21.8312C56.7051 18.7069 57.1966 15.8154 58.1798 13.1571C59.1821 10.479 60.6097 8.16966 62.4628 6.22925C64.3348 4.26917 66.6133 2.74595 69.2983 1.65904C71.9833 0.553012 75.0183 0 78.403 0H78.7999C80.9557 0.0388081 83.0735 0.281359 85.1534 0.727652C87.2523 1.15454 89.3984 1.73666 91.5919 2.47429L92.3861 14.2922H91.7904C91.639 13.8071 91.4405 13.225 91.1947 12.5458C90.9488 11.847 90.6369 11.1097 90.2588 10.3335C89.8996 9.55733 89.4552 8.76148 88.9258 7.94651C88.4152 7.13154 87.8195 6.35538 87.1387 5.61803C86.477 4.86099 85.7205 4.17215 84.8698 3.55122C84.0188 2.93029 83.0638 2.42579 82.0049 2.03771L81.8064 1.92128C81.2013 1.76605 80.6153 1.65904 80.0479 1.60083C79.4996 1.54262 78.9984 1.51351 78.5446 1.51351C76.4459 1.51351 74.6494 2.03771 73.1558 3.08553C71.662 4.11394 70.4329 5.54041 69.4685 7.36439C68.523 9.16924 67.8233 11.3134 67.3695 13.7974C66.9346 16.262 66.7173 18.93 66.7173 21.8021C66.7173 24.9653 66.982 27.7791 67.5115 30.2437C68.0598 32.708 68.854 34.7845 69.894 36.4727C70.9338 38.1611 72.2103 39.4515 73.723 40.3441C75.2545 41.2369 76.9942 41.6832 78.9418 41.6832C79.7926 41.6638 80.5965 41.5377 81.3527 41.3049C82.128 41.072 82.7991 40.7615 83.3665 40.3732C83.9525 39.9657 84.416 39.5 84.7564 38.9761C85.0965 38.4522 85.2667 37.8798 85.2667 37.2588L85.2953 28.4098L80.3032 23.5488V23.0831H94.0027V38.4231Z" fill="#10244C"/>
<path d="M109.143 12.6332V17.8725C109.54 17.1158 110.088 16.3978 110.788 15.7184C111.488 15.0199 112.272 14.4086 113.142 13.8847C114.012 13.3608 114.92 12.9533 115.865 12.6623C116.81 12.3518 117.727 12.1963 118.616 12.1963C119.051 12.1963 119.467 12.2254 119.864 12.2836C120.28 12.3421 120.696 12.4585 121.112 12.6332L119.609 21.9477H119.155C118.796 21.4626 118.408 20.9581 117.992 20.4341C117.595 19.9102 117.141 19.4348 116.631 19.0077C116.139 18.5614 115.581 18.2024 114.957 17.9307C114.352 17.6591 113.672 17.5233 112.915 17.5233C112.064 17.5233 111.317 17.727 110.675 18.1345C110.032 18.5226 109.521 18.9592 109.143 19.4445V38.4231L112.745 42.0907V42.5273H96.9468V42.0907L100.435 38.4522V18.1054L97.2586 15.3691V14.9034L108.831 12.3127L109.143 12.6332Z" fill="#10244C"/>
<path d="M134.693 13.5937C133.86 13.5937 133.123 13.8653 132.48 14.4087C131.837 14.9326 131.298 15.6893 130.863 16.6792C130.429 17.6494 130.088 18.8428 129.842 20.2595C129.596 21.6566 129.455 23.2286 129.417 24.975L139.316 24.3638C139.316 22.4619 139.221 20.832 139.032 19.4737C138.843 18.1151 138.559 16.9994 138.181 16.1262C137.803 15.2527 137.321 14.6124 136.735 14.2049C136.167 13.7974 135.487 13.5937 134.693 13.5937ZM147.229 36.0361C146.548 37.1425 145.782 38.1418 144.931 39.0343C144.1 39.9075 143.154 40.6646 142.095 41.3049C141.036 41.9258 139.864 42.4012 138.578 42.7311C137.292 43.061 135.874 43.2259 134.324 43.2259C132.225 43.2259 130.315 42.8572 128.594 42.1199C126.893 41.3825 125.437 40.3635 124.226 39.0635C123.016 37.744 122.08 36.172 121.418 34.348C120.775 32.5237 120.454 30.5154 120.454 28.3225C120.454 25.9549 120.813 23.7914 121.532 21.8313C122.25 19.8521 123.252 18.1636 124.538 16.7665C125.843 15.3498 127.394 14.2534 129.19 13.4773C131.005 12.7011 132.991 12.3127 135.146 12.3127C137.17 12.3127 138.966 12.672 140.535 13.3899C142.124 14.0885 143.466 15.049 144.563 16.2717C145.66 17.4942 146.492 18.9301 147.059 20.5797C147.626 22.2096 147.91 23.9563 147.91 25.8191H129.389C129.37 25.9549 129.36 26.081 129.36 26.1975C129.36 26.3139 129.36 26.45 129.36 26.6052C129.474 30.3893 130.353 33.3096 131.998 35.3667C133.643 37.4238 135.922 38.4522 138.833 38.4522C139.684 38.4522 140.497 38.3746 141.273 38.2194C142.067 38.0641 142.804 37.8604 143.485 37.6082C144.166 37.3365 144.78 37.0357 145.329 36.7056C145.896 36.3757 146.388 36.0264 146.803 35.6578L147.229 36.0361Z" fill="#10244C"/>
<path d="M161.434 39.0051C163.041 39.0051 164.402 38.5588 165.518 37.6662V26.9835C164.27 27.1969 163.145 27.5268 162.143 27.9731C161.141 28.4 160.29 28.9336 159.59 29.5739C158.891 30.2145 158.351 30.9519 157.973 31.7862C157.595 32.6206 157.406 33.5329 157.406 34.5225C157.406 35.8614 157.718 36.948 158.342 37.7827C158.985 38.5976 160.015 39.0051 161.434 39.0051ZM165.773 38.8014C164.601 40.1208 163.23 41.1883 161.661 42.0033C160.091 42.8183 158.418 43.2258 156.64 43.2258C155.544 43.2258 154.532 43.0802 153.605 42.7892C152.679 42.4981 151.875 42.0809 151.195 41.5376C150.533 40.9749 150.013 40.2955 149.635 39.4999C149.256 38.7043 149.067 37.7923 149.067 36.7637C149.067 35.1337 149.512 33.6881 150.4 32.4266C151.308 31.1653 152.509 30.0787 154.002 29.1664C155.515 28.2544 157.264 27.5268 159.25 26.9835C161.235 26.4401 163.325 26.0712 165.518 25.8771V22.2095C165.518 21.2975 165.386 20.4631 165.121 19.7064C164.875 18.9493 164.478 18.309 163.93 17.7851C163.381 17.2418 162.682 16.8246 161.831 16.5335C160.98 16.2425 159.959 16.097 158.767 16.097C157.444 16.097 156.186 16.2619 154.995 16.5918C153.823 16.9216 152.613 17.4455 151.365 18.1635L150.968 17.6105C152.499 16.0387 154.371 14.7772 156.583 13.8264C158.796 12.8562 161.263 12.3711 163.986 12.3711C166.028 12.3711 167.711 12.6233 169.035 13.1279C170.359 13.613 171.399 14.3115 172.155 15.2235C172.93 16.1164 173.469 17.1933 173.772 18.4545C174.074 19.6967 174.226 21.0647 174.226 22.5588V37.3169L177.175 40.548V40.8973L166.766 43.2258L165.773 38.8014Z" fill="#10244C"/>
<path d="M190.33 43.2259C189.139 43.2259 188.032 43.0513 187.011 42.702C185.99 42.3527 185.092 41.8385 184.317 41.1594C183.56 40.4605 182.965 39.5971 182.53 38.5686C182.095 37.5402 181.878 36.3369 181.878 34.9592V14.1758H178.247V13.8265L182.275 11.7597L190.046 5.93823H190.557V13.0698H199.179V14.1758H190.557V34.9592C190.557 36.5115 190.887 37.6858 191.549 38.4813C192.23 39.2575 193.195 39.6456 194.443 39.6456C195.52 39.6456 196.513 39.5195 197.421 39.2672C198.328 38.9955 199.094 38.6366 199.718 38.1903L200.002 38.6269C199.529 39.2284 198.962 39.8105 198.3 40.3732C197.657 40.9168 196.92 41.4019 196.087 41.8288C195.274 42.2557 194.386 42.5953 193.421 42.8475C192.457 43.0998 191.427 43.2259 190.33 43.2259Z" fill="#10244C"/>
<path d="M56.7051 60.7969H57.9431V55.1653H56.7051V60.7969Z" fill="#10244C"/>
<path d="M61.2388 60.7969H62.4607V57.2168L65.1858 60.7969H66.2392V55.1653H65.017V58.6328L62.3803 55.1653H61.2388V60.7969Z" fill="#10244C"/>
<path d="M70.7897 60.7969H72.0277V56.3076H73.7399V55.1653H69.0771V56.3076H70.7897V60.7969Z" fill="#10244C"/>
<path d="M76.5811 60.7969H80.866V59.6948H77.8113V58.5122H80.4641V57.4098H77.8113V56.2674H80.8258V55.1653H76.5811V60.7969Z" fill="#10244C"/>
<path d="M83.8564 60.7969H85.0944V58.9948H86.0671L87.2729 60.7969H88.7199L87.3453 58.7855C88.0607 58.5202 88.5511 57.9489 88.5511 57.0397V57.0236C88.5511 56.4928 88.3823 56.0504 88.0688 55.7366C87.699 55.3665 87.1443 55.1653 86.4289 55.1653H83.8564V60.7969ZM85.0944 57.9007V56.2835H86.3244C86.9273 56.2835 87.2971 56.5571 87.2971 57.0882V57.1043C87.2971 57.5789 86.9514 57.9007 86.3485 57.9007H85.0944Z" fill="#10244C"/>
<path d="M91.5552 60.7969H92.7771V57.2168L95.5025 60.7969H96.5556V55.1653H95.3337V58.6328L92.6967 55.1653H91.5552V60.7969Z" fill="#10244C"/>
<path d="M99.3135 60.7968H100.576L101.09 59.5339H103.47L103.984 60.7968H105.279L102.867 55.125H101.725L99.3135 60.7968ZM101.532 58.4395L102.28 56.6133L103.027 58.4395H101.532Z" fill="#10244C"/>
<path d="M108.624 60.7969H109.862V56.3076H111.575V55.1653H106.912V56.3076H108.624V60.7969Z" fill="#10244C"/>
<path d="M114.472 60.7969H115.71V55.1653H114.472V60.7969Z" fill="#10244C"/>
<path d="M121.739 60.8934C123.476 60.8934 124.738 59.582 124.738 57.9809V57.9648C124.738 56.3637 123.492 55.0686 121.755 55.0686C120.019 55.0686 118.757 56.3798 118.757 57.9809V57.997C118.757 59.5981 120.003 60.8934 121.739 60.8934ZM121.755 59.7508C120.759 59.7508 120.051 58.9464 120.051 57.9809V57.9648C120.051 56.9993 120.742 56.211 121.739 56.211C122.736 56.211 123.444 57.0154 123.444 57.9809V57.997C123.444 58.9625 122.752 59.7508 121.755 59.7508Z" fill="#10244C"/>
<path d="M127.725 60.7969H128.947V57.2168L131.672 60.7969H132.726V55.1653H131.504V58.6328L128.867 55.1653H127.725V60.7969Z" fill="#10244C"/>
<path d="M135.483 60.7968H136.745L137.26 59.5339H139.639L140.154 60.7968H141.448L139.037 55.125H137.895L135.483 60.7968ZM137.702 58.4395L138.45 56.6133L139.197 58.4395H137.702Z" fill="#10244C"/>
<path d="M144.206 60.7969H148.25V59.6706H145.444V55.1653H144.206V60.7969Z" fill="#10244C"/>
<path d="M157.668 60.9738C158.882 60.9738 159.734 60.3462 159.734 59.228V59.2119C159.734 58.2304 159.091 57.8201 157.949 57.5224C156.976 57.2729 156.735 57.1523 156.735 56.7823V56.7662C156.735 56.4926 156.985 56.2753 157.459 56.2753C157.933 56.2753 158.423 56.4846 158.922 56.8305L159.565 55.8972C158.994 55.4387 158.295 55.1812 157.475 55.1812C156.325 55.1812 155.505 55.857 155.505 56.8787V56.8948C155.505 58.013 156.237 58.3268 157.37 58.6165C158.311 58.8579 158.504 59.0187 158.504 59.3325V59.3486C158.504 59.6785 158.198 59.8797 157.692 59.8797C157.049 59.8797 156.518 59.6142 156.012 59.1959L155.28 60.0726C155.956 60.6761 156.816 60.9738 157.668 60.9738Z" fill="#10244C"/>
<path d="M165.335 60.9901C166.42 60.9901 167.063 60.604 167.642 59.9844L166.854 59.188C166.412 59.5902 166.018 59.8478 165.375 59.8478C164.41 59.8478 163.743 59.043 163.743 58.0775V58.0615C163.743 57.0963 164.426 56.3076 165.375 56.3076C165.938 56.3076 166.38 56.5491 166.814 56.9432L167.602 56.0343C167.079 55.5193 166.444 55.1653 165.383 55.1653C163.655 55.1653 162.449 56.4767 162.449 58.0775V58.0939C162.449 59.7108 163.679 60.9901 165.335 60.9901Z" fill="#10244C"/>
<path d="M170.522 60.8936H171.76V58.6328H174.043V60.8936H175.281V55.2617H174.043V57.4904H171.76V55.2617H170.522V60.8936Z" fill="#10244C"/>
<path d="M181.253 60.9901C182.989 60.9901 184.251 59.6787 184.251 58.0775V58.0615C184.251 56.4606 183.005 55.1653 181.269 55.1653C179.532 55.1653 178.27 56.4767 178.27 58.0775V58.0939C178.27 59.6947 179.516 60.9901 181.253 60.9901ZM181.269 59.8478C180.272 59.8478 179.564 59.043 179.564 58.0775V58.0615C179.564 57.0963 180.256 56.3076 181.253 56.3076C182.25 56.3076 182.957 57.1123 182.957 58.0775V58.0939C182.957 59.0591 182.266 59.8478 181.269 59.8478Z" fill="#10244C"/>
<path d="M189.972 60.9901C191.708 60.9901 192.97 59.6787 192.97 58.0775V58.0615C192.97 56.4606 191.724 55.1653 189.988 55.1653C188.251 55.1653 186.989 56.4767 186.989 58.0775V58.0939C186.989 59.6947 188.236 60.9901 189.972 60.9901ZM189.988 59.8478C188.991 59.8478 188.284 59.043 188.284 58.0775V58.0615C188.284 57.0963 188.975 56.3076 189.972 56.3076C190.969 56.3076 191.676 57.1123 191.676 58.0775V58.0939C191.676 59.0591 190.985 59.8478 189.988 59.8478Z" fill="#10244C"/>
<path d="M195.958 60.8936H200.002V59.7671H197.196V55.2617H195.958V60.8936Z" fill="#10244C"/>
</svg>
