<svg xmlns="http://www.w3.org/2000/svg" viewBox="0 0 143.52 33.67"><defs><style>.cls-1{fill:#00509e;fill-rule:evenodd;}</style></defs><g id="Camada_2" data-name="Camada 2"><g id="Camada_1-2" data-name="Camada 1"><path class="cls-1" d="M99.17,20a5.31,5.31,0,0,1,1.61.17c.08,0,.35.07.38.12v1.49h0c-.08,0-.14-.1-.21-.13a3.19,3.19,0,0,0-.69-.27c-.16-.05-.33-.05-.5-.09h-.18a1.82,1.82,0,0,0-.57,0,2,2,0,0,0-.37.14.59.59,0,0,0-.4.63c0,.06,0,.1,0,.15.17.41.68.57,1.07.77.86.42,1.68.68,2,1.63a2.21,2.21,0,0,1,.1,1,2.53,2.53,0,0,1-.22.72,2.28,2.28,0,0,1-1.37,1,5.22,5.22,0,0,1-.57.11h-.13a2.87,2.87,0,0,1-.88,0h-.21c-.14,0-.32,0-.46-.07s-.2,0-.31-.05l-.53-.17a1.08,1.08,0,0,1-.24-.1V25.49h0a1.16,1.16,0,0,0,.34.24,3.59,3.59,0,0,0,.91.4c.16.05.34,0,.51.08a1.17,1.17,0,0,0,.42,0c.11,0,.18,0,.28,0a1,1,0,0,0,.63-.38.54.54,0,0,0,.1-.42c-.09-.42-.46-.6-.8-.78l-.76-.35c-.14-.07-.28-.1-.41-.18s-.44-.29-.64-.44a2.1,2.1,0,0,1-.5-2.26,2,2,0,0,1,1.13-1.09,4.4,4.4,0,0,1,1-.24C98.83,20,99.1,20.05,99.17,20Zm-29.57.13h5.74v1.33h-2a2.08,2.08,0,0,0,0,.56v5.35H71.65v-5.9a2.72,2.72,0,0,0-.64,0H69.6Zm7.42,0h4.17v1.33H78.65v1.6h0a5,5,0,0,1,.78,0H81a1.47,1.47,0,0,1,0,.42v.9a3.51,3.51,0,0,1-.73,0H78.66a2.25,2.25,0,0,0,0,.52V26h2.71v0a1.92,1.92,0,0,1,0,.34c0,.3,0,.75,0,1H77Zm12.26,7.24H87.42c-.12-.25-.3-.48-.44-.72s-.43-.71-.65-1.06a2.17,2.17,0,0,0-.77-.94,1.94,1.94,0,0,0-.7,0,1.17,1.17,0,0,0,0,.27v2.5H83.23a3.05,3.05,0,0,1,0-.68V20.14a1.11,1.11,0,0,1,.26,0h2.6c.08,0,.22,0,.32,0s.29,0,.43.06a3.08,3.08,0,0,1,1.08.5,2.09,2.09,0,0,1,.37,2.21A2.23,2.23,0,0,1,87.2,24c-.12.06-.25.09-.38.14v0a1.42,1.42,0,0,1,.74.6,2.52,2.52,0,0,1,.21.25c.34.49.63,1,1,1.51l.37.59A.84.84,0,0,1,89.28,27.37Zm5.56-5.91H92.3a2,2,0,0,0,0,.49v1.1l0,0a5,5,0,0,1,.78,0h1.54a1.47,1.47,0,0,1,0,.42v.9a3.51,3.51,0,0,1-.73,0H92.3a2.25,2.25,0,0,0,0,.52V26a.8.8,0,0,0,.27,0H95a2,2,0,0,1,0,.43v.89a1.46,1.46,0,0,1-.42,0H90.68a3,3,0,0,1,0-.68V20.14a1.4,1.4,0,0,1,.41,0h3.76a1.45,1.45,0,0,1,0,.42Zm7.92-1.33h2.83a1.67,1.67,0,0,1,0,.39v.86a3,3,0,0,1-.6,0,1.69,1.69,0,0,0,0,.45V26.1a3,3,0,0,0,.6,0,1.75,1.75,0,0,1,0,.4v.85a1.09,1.09,0,0,1-.26,0h-2.58a1.67,1.67,0,0,1,0-.39v-.86a3,3,0,0,1,.6,0,1.69,1.69,0,0,0,0-.45V21.4a3,3,0,0,0-.6,0,1.48,1.48,0,0,1,0-.37V20.4A1.17,1.17,0,0,1,102.76,20.13Zm4.58,0h1.75c.24.42.56.82.82,1.24.49.77,1,1.53,1.49,2.28l.67,1a2.14,2.14,0,0,0,.26.42s0,0,0,0,0-.27,0-.34c0-.32,0-.65,0-1V20.14a1.91,1.91,0,0,1,.48,0h1a3,3,0,0,1,0,.68v6.55a1.87,1.87,0,0,1-.53,0h-1.11c-.31-.5-.68-1-1-1.48-.51-.8-1-1.59-1.55-2.37l-.62-1c0-.06-.15-.31-.21-.33a19,19,0,0,1,0,2v3.12a2,2,0,0,1-.49,0h-1Zm12.66,0a2,2,0,0,0,.17.48c.17.44.3.89.47,1.31.08.21.12.4.2.61.26.7.5,1.44.77,2.14.12.32.21.64.34.94s.09.32.15.48l.31.83c0,.11.07.21.11.31s0,.13,0,.13a1.88,1.88,0,0,1-.48,0h-1.28v0a1.5,1.5,0,0,1-.1-.32c-.1-.27-.18-.58-.29-.85a1.8,1.8,0,0,0-.13-.41h-2.55c-.07.14-.09.32-.15.48s-.16.49-.25.72a1.56,1.56,0,0,1-.12.4,2,2,0,0,1-.49,0h-1.27a2.7,2.7,0,0,1,.2-.54c.16-.41.29-.82.44-1.22s.17-.51.27-.77c.38-1,.73-2,1.11-3,.15-.41.29-.82.44-1.22,0-.12.09-.25.13-.36s0-.11,0-.12ZM84.87,21.35a2,2,0,0,0,0,.55v1.45a1.2,1.2,0,0,0,.27,0h.61a2.65,2.65,0,0,1,.3-.06,1.07,1.07,0,0,0,.48-.35,1.38,1.38,0,0,0,.18-.34,1.07,1.07,0,0,0,0-.44,1,1,0,0,0-.16-.47C86.27,21.3,85.56,21.34,84.87,21.35Zm33.19,3.15h1.26a2.24,2.24,0,0,0,.58,0c-.11-.3-.2-.61-.3-.91,0-.14-.06-.26-.11-.4-.16-.42-.3-.86-.43-1.3l-.06-.46h0v0a3.69,3.69,0,0,0,0,.37c-.07.22-.12.44-.2.67s-.23.71-.35,1.05l0,.19c-.06.15-.09.32-.15.48A1.06,1.06,0,0,0,118.06,24.5Z"/><path class="cls-1" d="M24.65,26.17l.05-.68a.59.59,0,0,0-.72-.35,2.21,2.21,0,0,0-.1.71.12.12,0,0,1-.07,0c-.09.06-.3,0-.43.06s-.39,0-.59.07a3.2,3.2,0,0,1-.54.08v0a1.81,1.81,0,0,0,.24-.24l.36-.35,1.2-1.18a1.31,1.31,0,0,0,.11-.12l.15-.13s0-.05,0-.06c.2-.18.38-.38.57-.57l.64-.62c.13-.12.24-.27.37-.38a5.25,5.25,0,0,0,.42-.4l.57-.57a2.29,2.29,0,0,1,.23-.21l1.12-1.12c.31-.3.62-.6.92-.91a6.63,6.63,0,0,1,.54-.52l.4-.41c.19-.2.39-.39.59-.58s.35-.37.54-.53l.11-.13a.93.93,0,0,0,.15-.13l.05-.07c.3-.24.55-.55.83-.82.5-.47,1-1,1.46-1.44l.58-.56c.05-.06.18-.14.2-.23a1.85,1.85,0,0,1-.28-.28l-.62-.63-1.18-1.17c-.1-.1-.2-.2-.29-.31l-.11-.09a.69.69,0,0,0-.11-.13c-.14-.12-.26-.26-.39-.39l-.9-.91-2-1.94L28,7.08c-.12-.12-.23-.25-.36-.36l0,0-.2-.2L27,6c-.09-.09-.17-.18-.26-.26s-.24-.26-.37-.37a.31.31,0,0,1-.07-.09L26,5.09C26,5,25.9,5,25.84,4.93l-.48-.49a2.42,2.42,0,0,1-.31-.33S25,4.06,24.94,4a.58.58,0,0,0-.1-.12,5.9,5.9,0,0,1-.5-.5c-.2-.2-.42-.39-.6-.61l-.12-.09c-.09-.1-.17-.2-.26-.29s-.07,0-.09-.07L23,2.11c-.23-.23-.45-.47-.68-.69S21.94,1,21.72.77c-.06-.06-.23-.19-.25-.27h0c.05,0,.1,0,.16,0s.28-.06.43-.11c.39-.11.85-.14,1.28-.23.18,0,.37,0,.55-.06H24c.08,0,.19,0,.28,0a4.44,4.44,0,0,1,.83,0,4,4,0,0,1,.8,0h.18c.13,0,.3,0,.43,0s.22,0,.35,0,.53.07.76.13l.22,0c.3.08.63.14.91.23l.15,0a13.42,13.42,0,0,1,2.62,1.07l.15.06c.25.15.5.28.74.43.48.31.93.66,1.38,1,.14.09.25.22.39.32l.06.08a4.31,4.31,0,0,1,.69.66l0,0c.07.08.16.15.23.23.23.31.52.57.74.88a16.07,16.07,0,0,1,1.87,3.21c.21.5.35,1,.53,1.58,0,.12,0,.24.08.36.12.41.16.88.26,1.32v.1c0,.11,0,.25.06.37v.14c0,.1,0,.25,0,.35v.16c0,.16,0,.38,0,.55a2.18,2.18,0,0,1,0,.72v.43c0,.08,0,.18,0,.27-.06.29,0,.6-.1.88s-.08.56-.16.83A13.7,13.7,0,0,1,38,18.48c-.18.42-.34.86-.55,1.27A14.4,14.4,0,0,1,35.1,23a13.69,13.69,0,0,1-4.55,3.18c-.34.15-.72.28-1.07.42a2,2,0,0,1-.23.06l-.37.11s-.12.06-.16,0a1.09,1.09,0,0,1,0-.44c0-.09,0-.16,0-.25a.82.82,0,0,0-.08-.71l-.09-.07a1,1,0,0,0-.76-.27,2.08,2.08,0,0,0-.25,0h-.21c-.28.07-.55.09-.8.18a10.67,10.67,0,0,0-1.28.52c-.14.07-.29.16-.42.24S24.74,26.16,24.65,26.17Z"/><path class="cls-1" d="M5.54,23.62v0a2.15,2.15,0,0,1,.51,0h1.1a2,2,0,0,0,0-.55V4.61a1.12,1.12,0,0,0-.32,0h-3a1.61,1.61,0,0,1,0-.44V.05a2,2,0,0,1,.49,0H8.87c.07,0,.18,0,.26,0a4,4,0,0,1,.64.16c.14.06.29.11.42.18a3.54,3.54,0,0,1,1.24,1.16,3.45,3.45,0,0,1,.47,1.16V9.34c0,.18,0,.41,0,.56h0a2.86,2.86,0,0,1,.16-.52c.07-.19.11-.37.18-.56s.24-.54.35-.79a14,14,0,0,1,1-1.8c.14-.23.32-.43.47-.65a7.17,7.17,0,0,1,.74-.91,1.7,1.7,0,0,0,.1-.14s.1-.08.14-.13a1.8,1.8,0,0,1,.19-.21.5.5,0,0,1,.08-.07A3.86,3.86,0,0,1,16,3.47c.09-.07.17-.17.26-.24.35-.26.68-.53,1.05-.77a1.77,1.77,0,0,1,.5-.32,1.42,1.42,0,0,0,.24.25.31.31,0,0,1,.07.09,3.44,3.44,0,0,1,.27.27c.09.12.24.21.33.33A2.42,2.42,0,0,0,19,3.4l.26.28c.05,0,.12.1.17.16s.23.22.33.35l.17.19a1.54,1.54,0,0,1,.19.17c.09.12.22.21.32.33s.41.45.62.66l.55.56a2.61,2.61,0,0,1,.24.23c.09.11.19.21.28.31a.31.31,0,0,1,.09.07,2,2,0,0,0,.24.26,1.42,1.42,0,0,0,.13.12c.19.22.42.4.59.63,0,0,.11.08.15.13.35.41.74.76,1.11,1.14.17.17.33.34.48.52l.1.07c.17.22.38.4.56.6s.53.5.76.77c.07.07.13.16.2.23a10.19,10.19,0,0,1,.8.81s.07,0,.1.09l.24.26s.07,0,.09.07c.18.23.42.4.59.63,0,0,.07.05.09.08a6.55,6.55,0,0,0,.58.6,1.93,1.93,0,0,1-.35.35c-.28.29-.58.57-.87.86-.74.75-1.49,1.48-2.24,2.23-.27.27-.53.57-.83.82-.1.08-.16.2-.27.27v0a1.22,1.22,0,0,0,.2-.25c.1-.13.21-.25.3-.38s.12-.22.19-.33a7.68,7.68,0,0,0,.6-1.22c.09-.22.14-.46.21-.69l0-.19c.06-.21.08-.47.13-.7v-.12a3.07,3.07,0,0,0,0-.91v-.18l0-.4c0-.12,0-.26-.05-.39s-.11-.54-.19-.79a7.12,7.12,0,0,0-3.49-4.26,9.63,9.63,0,0,0-1-.42c-.1,0-.2,0-.31-.08a9.57,9.57,0,0,0-1-.23c-.15,0-.29,0-.44,0a3,3,0,0,0-.79,0h-.26c-.28.06-.57,0-.84.11a9,9,0,0,0-1.24.36c-.08,0-.16,0-.25.08-.36.19-.73.36-1.07.58s-.39.28-.59.43-.11.11-.17.16a4.08,4.08,0,0,0-.82.84c-.09.12-.2.22-.29.34a7.31,7.31,0,0,0-1,1.87,6.17,6.17,0,0,0-.19.61c-.05.16-.06.32-.1.48s0,.28-.06.41v.21a1.37,1.37,0,0,1,0,.28,3,3,0,0,0,0,.6v.2c0,.2,0,.42.08.63s.07.43.13.64a8.29,8.29,0,0,0,.35,1,7.68,7.68,0,0,0,1.63,2.33,2.88,2.88,0,0,0,.27.22c.17.13.33.29.51.41s.28.15.29.22a1.83,1.83,0,0,0-.13.24l-.19.32-.61,1c-.09.13-.16.26-.24.39s0,.11-.1.13c-.13-.22-.31-.43-.46-.65s-.28-.47-.42-.72a1.48,1.48,0,0,0-.13-.21,4.6,4.6,0,0,1-.29-.59c-.11-.27-.26-.54-.37-.82s-.19-.52-.29-.77c0-.09,0-.17-.07-.25s0-.28-.11-.31v6.2h0c.05,0,.19,0,.26,0s.5,0,.68,0v0a2.75,2.75,0,0,0-.26.4c-.19.29-.4.58-.59.85-.06.09-.22.4-.32.41a2,2,0,0,0-.49-.19c-.27-.11-.58-.21-.86-.31-.08,0-.15,0-.22-.06-.63-.23-1.32-.36-2-.57l-.17,0L7.48,24H7.41c-.24-.08-.53-.12-.77-.18H6.56l-.47-.11H6A3.26,3.26,0,0,0,5.54,23.62Z"/><path class="cls-1" d="M17.82,15.11a.72.72,0,0,1,.58.27s.13.15.07.23-.06.07-.07.1V16c0,.06,0,.16,0,.23a3.48,3.48,0,0,0,0,.65,3.23,3.23,0,0,0,0,.54v.23a2.35,2.35,0,0,0,0,.26c0,.2,0,.44.06.63v.16c0,.21,0,.47.08.67v.12c0,.12,0,.26.05.39a7.94,7.94,0,0,1,.13.83h0s-.14,0-.21,0a3.3,3.3,0,0,1-.56-.07,2.44,2.44,0,0,0-.09-.54v-.27c0-.16,0-.35-.08-.51v-.13c0-.12,0-.28-.06-.41v-.13c0-.16,0-.37-.06-.54v-.18a2.41,2.41,0,0,1,0-.47,3.23,3.23,0,0,1,0-.44h0a3.11,3.11,0,0,1-.2.41c-.14.25-.26.51-.39.75A20.37,20.37,0,0,1,16,20h0c0-.06-.13-.08-.19-.11l-.3-.18s-.1,0-.12-.1a.86.86,0,0,0,.11-.19c.12-.19.25-.41.36-.61a.52.52,0,0,1,.06-.13c.17-.27.29-.57.46-.85.28-.46.53-1,.78-1.44.13-.24.25-.48.37-.72s.12-.25.18-.36a.64.64,0,0,1,0-.07s0,0,.06,0v0Z"/><path class="cls-1" d="M23.71,19s0,0,0,0a2.94,2.94,0,0,1-.31.3l-.73.72c-.79.78-1.57,1.57-2.35,2.35-.16.16-.31.31-.48.46s-.13.13-.19.19l0,0a2.37,2.37,0,0,0-.28.27.68.68,0,0,0-.12.12h0a.71.71,0,0,1,0-.22c0-.12-.05-.27-.08-.39v-.12c0-.1-.06-.25-.09-.36l0-.19c-.12-.47-.16-1-.27-1.49,0,0,0,0,.06,0a1.74,1.74,0,0,0,.4,0,3.27,3.27,0,0,0,.78-.05c.11,0,.19,0,.3,0a6.85,6.85,0,0,0,2.67-1c.07-.05.15-.08.23-.13s.21-.17.31-.25A1.28,1.28,0,0,0,23.71,19Z"/><path class="cls-1" d="M17.91,20.6a1.78,1.78,0,0,0,.08.47c0,.09,0,.15,0,.23s0,.29.08.41,0,.17,0,.26c.11.4.14.85.24,1.25,0,.07,0,.12,0,.18s.06.32.1.46,0,.22.06.28h0a.68.68,0,0,1,.12-.12L19,23.7c0-.05.1-.15.18-.17h0a2,2,0,0,0,.09.41c.06.23.08.47.14.7s.05.36.09.54c.1.38.17.79.25,1.19h.11c.06-.05.17,0,.26,0s.31,0,.47-.06.37,0,.54-.08h.09c.19,0,.41,0,.61-.07a1.2,1.2,0,0,1,.33-.05v0l-.55.53c0,.05-.13.17-.19.19s-.29,0-.41,0-.32,0-.46.06h-.14a2.76,2.76,0,0,1-.51.05s0,0,0,0a1.81,1.81,0,0,1,.1.43c.07.24.13.5.19.74s0,.24.08.37c.31,1.06.57,2.15.88,3.2.11.38.19.75.3,1.12a2.24,2.24,0,0,1,.11.38c0,.16-.4.45-.61.3a.9.9,0,0,1-.14-.2c-.08-.14-.17-.28-.26-.42-.25-.37-.52-.71-.78-1.06s-.38-.49-.57-.74-.23-.24-.33-.37l-.09-.09c-.09-.11-.19-.22-.29-.32l-.13-.13a2.45,2.45,0,0,0-.36-.36,1,1,0,0,1-.1-.11l-.05,0a1.84,1.84,0,0,0-.25-.23l-.09-.11c-.18-.13-.33-.3-.51-.44-.38-.28-.74-.58-1.14-.85-.25-.16-.5-.34-.76-.49s-.31-.16-.47-.25a2,2,0,0,0-.41-.22l-.82,0v-.66c0-.11,0-.25,0-.32h0a1.17,1.17,0,0,0,.27.15,3.1,3.1,0,0,0,.5.29h.4a3.38,3.38,0,0,0,.64,0c.11,0,.24,0,.33,0h.24a2.61,2.61,0,0,0,.4,0,2.35,2.35,0,0,1,.26,0h.31c.29-.07.65,0,.94-.05h.38c.28-.06.67,0,.93,0v-.05a2.24,2.24,0,0,1-.1-.41c-.1-.37-.16-.77-.27-1.14v-.16c0-.1-.06-.24-.09-.34s0-.1,0-.14h0a2,2,0,0,1-.25.25l-.43.44-.22.21a.89.89,0,0,1-.22-.16c-.18-.11-.34-.24-.51-.36a13.9,13.9,0,0,1-1.67-1.48,4.51,4.51,0,0,1-.46-.51c-.06-.07-.17-.13-.19-.24a.86.86,0,0,0,.11-.19L15,21.6c.19-.32.39-.65.6-1l0-.07L16,20h0a3.49,3.49,0,0,1,.39.19c.3.12.6.19.93.29A2.5,2.5,0,0,0,17.91,20.6Z"/><path class="cls-1" d="M5.53,23.62a4.27,4.27,0,0,1,0,.62H5.44c-.09-.06-.3,0-.42-.06a3.46,3.46,0,0,0-1.6,0c-.12,0-.35.14-.3.34s.22.28.39.38a6.78,6.78,0,0,0,1.35.53c.17.06.34.08.5.13s.16,0,.18.08a.46.46,0,0,0,0,.17c0,.14,0,.32,0,.43a1.1,1.1,0,0,1-.26-.06c-.22-.07-.45-.12-.66-.2s-.29-.07-.44-.13-.59-.25-.86-.39l-.16-.07-.29-.2s-.08-.09-.13-.12A.89.89,0,0,1,3,23.5c.14-.05.31,0,.46-.07h.22a2.34,2.34,0,0,1,.59,0c.16,0,.31,0,.47,0A7,7,0,0,0,5.53,23.62Z"/><path class="cls-1" d="M35.43,26.13a2.29,2.29,0,0,0,.07.34,2.08,2.08,0,0,1-.08.68,1.79,1.79,0,0,1-1.21,1.15,1.1,1.1,0,0,1-.18,0,2,2,0,0,1-.77,0,2,2,0,0,1-.48-.17,1.72,1.72,0,0,1-.59-.61,3.21,3.21,0,0,1-.12-.33c-.14.07-.27.16-.39.23a2.53,2.53,0,0,1-.45.19,3.2,3.2,0,0,1-2,.23,2.23,2.23,0,0,1-.71-.34,1.22,1.22,0,0,1-.45-.53h0a.71.71,0,0,1,.25-.06,3.57,3.57,0,0,1,.35-.1h0a.75.75,0,0,0,.1.32s.08,0,.12.08a1.65,1.65,0,0,0,1.26.05,6.8,6.8,0,0,0,1.55-.77c.13-.08.26-.14.38-.23s0-.07.05-.12a2.8,2.8,0,0,1,.15-.3,1.61,1.61,0,0,1,.54-.59l.19,0a.78.78,0,0,1,.24-.38.83.83,0,0,1,.57-.06,2.56,2.56,0,0,1,.84.35c.08.06.29.29.37.3s.09,0,.13,0,.37,0,.54,0,.22,0,.32,0h.34c.53,0,1,0,1.52,0,0-.06,0-.14.07-.2a1.16,1.16,0,0,1,.13-.22,2.09,2.09,0,0,1,.6-.46A7.37,7.37,0,0,1,40.43,24c.17-.05.33-.05.5-.09a.73.73,0,0,1,.3,0c.24.06.52.18.51.48l-.08.07c-.23.08-.47.11-.71.18A14.5,14.5,0,0,0,39.5,25c-.2.08-.61.22-.68.42,0,0,.1,0,.12.08v0a.83.83,0,0,0-.11.15c.07,0,.12.11.19.16s.16.09.23.13.31.15.47.23c.33.17.69.33,1,.53s.33.16.49.26.47.31.37.64a.41.41,0,0,1-.07.15,1.39,1.39,0,0,1-.91.48l-.35,0-.48,0a1.76,1.76,0,0,1-.33,0,3.11,3.11,0,0,1-.62,0h-.18c-.33-.08-.56-.06-.72-.32a.38.38,0,0,1,0-.26A.6.6,0,0,1,38,27.7a.64.64,0,0,1,.28,0,2.27,2.27,0,0,0,.46,0,7.94,7.94,0,0,0,1.59-.13h.09l.34-.08h.09s0,0,0,0c-.58-.29-1.18-.54-1.74-.84-.17-.09-.34-.14-.5-.24a1.94,1.94,0,0,1-.43-.3c0-.06-.1-.19-.18-.2a.61.61,0,0,1-.15,0c-.1,0-.22,0-.32.06h-.17l-.27,0H37a1.66,1.66,0,0,0-.22,0h-.2a1.28,1.28,0,0,0-.19,0A5.52,5.52,0,0,1,35.43,26.13Z"/><path class="cls-1" d="M13.41,26.11a.58.58,0,0,1-.24-.14L13,25.89l-.3-.17c-.06,0-.22-.07-.23-.14a1.29,1.29,0,0,0,.3-.42c.16-.24.3-.48.46-.72a2.46,2.46,0,0,0,.17-.27h0Z"/><path class="cls-1" d="M5.54,24.25a1.67,1.67,0,0,1,.4.07c.15,0,.3,0,.43.08a1.81,1.81,0,0,1,.23,0c.17,0,.36.07.53.12l.19,0c.25.07.53.11.79.19.66.2,1.33.37,2,.6.09,0,.17,0,.26.08l.67.27c.07,0,.28.07.3.14s-.09.13-.13.19-.13.16-.18.24,0,.1-.1.12a2.22,2.22,0,0,1-.43,0h-.23c-.27-.07-.59-.05-.85-.11l-.28,0c-.27-.06-.59-.07-.86-.13a2.06,2.06,0,0,0-.26,0c-.26-.06-.56-.09-.82-.15a1.66,1.66,0,0,0-.22,0c-.21-.06-.44-.07-.66-.14l-.72-.17a1.46,1.46,0,0,1,0-.42Z"/><path class="cls-1" d="M28,25.61h0s0,0,0,.05,0,.2,0,.3a2,2,0,0,0,0,.81.88.88,0,0,1,.07.23h0a2.74,2.74,0,0,0-.57.11c-.19.05-.39,0-.57.09s-.35,0-.54,0-.23,0-.33,0h-.18a2.3,2.3,0,0,1-.46,0h-.77s0,0,0,0,.07-.08.11-.13l.12-.11a2.68,2.68,0,0,1,.3-.28,7.75,7.75,0,0,1,1.19-.7,6.22,6.22,0,0,1,1-.34c.13,0,.26,0,.39-.08S27.91,25.64,28,25.61Z"/><path class="cls-1" d="M33.4,25.68l0,.26a1.62,1.62,0,0,1-.21.39c-.07.09-.35.3-.37.4s0,.41,0,.51c.1.32.18.55.5.63h.11a.45.45,0,0,0,.2,0,1.29,1.29,0,0,0,1-1.08c0-.2,0-.65-.09-.75A2.68,2.68,0,0,0,34.1,26,6.37,6.37,0,0,1,33.4,25.68Z"/><path class="cls-1" d="M12.05,26.15a1.18,1.18,0,0,1,.33.12l.54.19h0c-.05,0-.21,0-.29,0h-.78v0A1.25,1.25,0,0,0,12.05,26.15Z"/><path class="cls-1" d="M10.48,27s0,0,0,0a1.09,1.09,0,0,1-.21.27v0h.89v0a6.94,6.94,0,0,0-.51.59,5.18,5.18,0,0,1-.4.41c-.24.24-.45.5-.71.73a24.77,24.77,0,0,1-2.15,1.78c-.42.29-.85.57-1.29.85-.16.1-.34.18-.51.28A10.32,10.32,0,0,1,4,32.8c-.38.16-.79.34-1.2.48-.24.09-.48.14-.72.21s-.17,0-.27,0a3.87,3.87,0,0,1-1.63.08A.55.55,0,0,1,0,33.37s.05-.07.09-.08H.54a7.06,7.06,0,0,0,.85-.19A21.15,21.15,0,0,0,4,32a30.59,30.59,0,0,0,3.44-2.14c.46-.32.86-.7,1.3-1,.09-.07.16-.16.24-.23s.21-.18.32-.27l.06-.08a7.94,7.94,0,0,0,.59-.57c.1-.11.19-.24.3-.34v0h0a1.18,1.18,0,0,1-.33,0H5.93a2.51,2.51,0,0,1-.39,0V26.25h0c.21,0,.45.11.66.16h.08l.44.11.23,0c.27.07.58.08.85.15h.1c.14,0,.31,0,.46.08h.08l.35.05h.11c.13,0,.29,0,.43.05A11,11,0,0,0,10.48,27Z"/><path class="cls-1" d="M23.72,27.24a3.45,3.45,0,0,1-.81-.1c-.19-.05-.36,0-.54-.09l-.83-.2v0a1.36,1.36,0,0,0,.2,0c.24,0,.53,0,.78-.09s.41-.06.6-.11h.08l.6-.13a.07.07,0,0,1,0,.05c0,.06,0,.15,0,.24A3.78,3.78,0,0,0,23.72,27.24Z"/><path class="cls-1" d="M11.4,27a1.37,1.37,0,0,1,.29,0c.13,0,.27,0,.38,0h.3c.12,0,.26,0,.38,0a3.48,3.48,0,0,0,.65,0,.66.66,0,0,1,0,.2h0a.46.46,0,0,1-.17,0h-2v0A1,1,0,0,0,11.4,27Z"/><path class="cls-1" d="M24.6,27.32c0,.08-.1.14-.13.22v.22a1.45,1.45,0,0,1,0,.3.52.52,0,0,1-.37,0,.5.5,0,0,1-.32-.24v-.14a1,1,0,0,1,0-.42h.1c.06,0,.16,0,.23,0A2.46,2.46,0,0,0,24.6,27.32Z"/><path class="cls-1" d="M56.85,0c.23,0,.53,0,.75,0h.14c.16,0,.34,0,.5.06.38.1.77.14,1.12.27a8.39,8.39,0,0,1,5,4.31A9.36,9.36,0,0,1,64.79,6c.13.37.17.78.27,1.19,0,.13,0,.28,0,.4v.19a3.76,3.76,0,0,1,0,1.06V9c0,.19,0,.42-.09.6a6.17,6.17,0,0,1-.11.62c-.07.23-.11.47-.2.7a9,9,0,0,1-.79,1.69,8.42,8.42,0,0,1-4.57,3.55c-.32.11-.67.16-1,.24-.15,0-.31,0-.45.07h-.12l-.38,0c-.11,0-.26,0-.36,0a.87.87,0,0,1-.28,0,5.29,5.29,0,0,1-.72,0h-.11l-.69-.11a10.23,10.23,0,0,1-1.82-.62c-.26-.13-.5-.23-.74-.38a8.49,8.49,0,0,1-3.2-3.51A10.23,10.23,0,0,1,49,10.71c0-.11,0-.19-.06-.29-.13-.36-.15-.79-.25-1.2l0-.53a2.35,2.35,0,0,1,0-.38,2.94,2.94,0,0,1,0-.6V7.54c0-.18,0-.38.07-.56s0-.32.09-.47a9.71,9.71,0,0,1,.37-1.26A12.55,12.55,0,0,1,49.81,4,8.42,8.42,0,0,1,54.09.5,10.68,10.68,0,0,1,55.3.17c.17-.05.37-.05.54-.09s.47,0,.7-.06S56.78.05,56.85,0Zm78.38,0c.24,0,.53,0,.75,0h.15c.16,0,.33,0,.5.06.45.12.9.18,1.32.33a8.42,8.42,0,0,1,4.61,4,11.09,11.09,0,0,1,.46,1c0,.13.06.25.11.38a13,13,0,0,1,.31,1.36c0,.14,0,.3.05.42v.21a2.51,2.51,0,0,1,0,.67v.22c0,.09,0,.22,0,.3v.14c0,.17,0,.38-.08.54s-.06.39-.12.58a7.13,7.13,0,0,1-.33,1.05,11.93,11.93,0,0,1-.71,1.38,8.38,8.38,0,0,1-3.42,3,11.4,11.4,0,0,1-1.39.51c-.31.1-.65.12-1,.2-.13,0-.26,0-.38,0s-.44,0-.64,0h-.35a3.87,3.87,0,0,1-.85-.06,2,2,0,0,1-.24,0c-.22-.05-.45-.07-.67-.13a9.22,9.22,0,0,1-1.7-.64,8.38,8.38,0,0,1-3.85-4,8.65,8.65,0,0,1-.42-1.18c0-.07,0-.14,0-.22-.1-.31-.12-.68-.2-1,0-.18,0-.35,0-.53a2.35,2.35,0,0,1,0-.38,4.06,4.06,0,0,1,0-.61V7.53c0-.18,0-.37.07-.55s.08-.52.16-.76.19-.65.31-1a7.93,7.93,0,0,1,.4-.83A8.23,8.23,0,0,1,132.47.5a10.68,10.68,0,0,1,1.21-.33c.18-.05.37-.05.54-.09s.47,0,.69-.06S135.16.06,135.23,0ZM103.57,16H99.51v-12a1.66,1.66,0,0,0-.32,0H96.28v0a.91.91,0,0,1,0-.29V.09a.8.8,0,0,1,.28,0,.77.77,0,0,0,.22,0h2.59l7.39,0v0s0,.2,0,.27V3.25a3.85,3.85,0,0,1,0,.91,3.18,3.18,0,0,0-.54,0h-2.08a3.45,3.45,0,0,0-.56,0Zm4,0V.08h0c.05,0,.21,0,.3,0h2.78a6.63,6.63,0,0,1,1,0V16a1.67,1.67,0,0,1-.39,0h-3.72Zm5-15.89H117c.1.19.15.41.25.62.26.51.42,1.08.67,1.6s.51,1.28.79,1.89c.1.21.17.44.27.64s0,.17.09.26.2.48.31.71.06.2.11.31c.15.31.27.66.42,1,0,.1.06.21.11.31.21.42.35.89.56,1.32h0a.85.85,0,0,1,.09-.22c.07-.17.12-.35.2-.51s.07-.26.13-.39c.15-.35.3-.74.44-1.1.37-.93.69-1.88,1.09-2.79.06-.13.07-.25.13-.39.16-.37.3-.78.47-1.15,0-.13.08-.25.13-.39.14-.38.32-.77.46-1.15.06-.14.1-.27.16-.4s0-.09,0-.11h4.35s0,0,0,0a1.25,1.25,0,0,0-.1.27c-.1.24-.19.5-.29.75-.21.56-.43,1.14-.66,1.69-.12.26-.18.53-.29.8-.2.45-.38.93-.56,1.39a5.49,5.49,0,0,1-.2.57c-.19.45-.35.92-.53,1.38-.38,1-.79,2-1.17,3-.25.66-.48,1.32-.76,2-.12.28-.2.56-.31.85-.27.71-.56,1.44-.84,2.15-.1.26-.18.51-.29.76a.78.78,0,0,1-.08.23h-3.2a4.43,4.43,0,0,0-.28-.68c-.18-.37-.29-.77-.47-1.13s-.15-.46-.27-.68c-.35-.71-.57-1.51-.93-2.22,0-.1-.06-.21-.11-.31s-.16-.38-.24-.55l-.07-.2c-.13-.26-.24-.56-.35-.82,0-.11-.06-.21-.11-.31s-.2-.51-.31-.76c-.27-.58-.47-1.21-.76-1.78l-.06-.2c-.08-.18-.16-.38-.25-.56s-.06-.2-.11-.31c-.11-.26-.23-.56-.35-.82,0-.1-.06-.2-.11-.31-.13-.26-.24-.55-.36-.82,0-.1-.06-.21-.11-.31-.32-.65-.55-1.36-.84-2q-.16-.39-.33-.81C112.61.27,112.52.15,112.54.07ZM81,.09h4.5a1.55,1.55,0,0,1,0,.31V10.48a.75.75,0,0,0,0,.22c0,.15,0,.33-.09.49a7.42,7.42,0,0,1-.45,1.33,6.46,6.46,0,0,1-.55,1c-.09.13-.22.24-.31.36a1.67,1.67,0,0,1-.34.36c-.07.05-.12.13-.18.18a10.91,10.91,0,0,1-1.39.88c-.13.07-.26.11-.39.18a9.36,9.36,0,0,1-1.52.53c-.26.07-.53,0-.8.11h-.18c-.2,0-.37,0-.54,0l0-.05a.86.86,0,0,0,0-.28V12.38a2.42,2.42,0,0,1,0-.27h.09a1.46,1.46,0,0,1,.31,0c.15,0,.32-.06.47-.11a2,2,0,0,0,1.29-1.09,2.85,2.85,0,0,0,.12-.54V10c0-.2,0-.53,0-.79V7.79C81,6,81,4.27,81,2.5,81,2,81,1.42,81,.88A6.93,6.93,0,0,1,81,.09ZM66.52,16V.14l4.17,0h1.47c.15,0,.27,0,.42,0a7.2,7.2,0,0,1,.78.16c.25.08.52.14.76.24a6.66,6.66,0,0,1,1.24.67,4,4,0,0,1,1.35,1.7,3.18,3.18,0,0,1,.18.6l0,.19a3.71,3.71,0,0,1,0,1.25,6.68,6.68,0,0,1-.18.71,3.79,3.79,0,0,1-1.87,2v0a1,1,0,0,1,.36.17c.25.14.49.27.71.42l.21.18a4.37,4.37,0,0,1,1.52,2,2.7,2.7,0,0,1,.11.43A2.72,2.72,0,0,1,77.91,12v.14c0,.22-.06.45-.13.66A4.55,4.55,0,0,1,77,14.06l-.15.15a5.76,5.76,0,0,1-.59.5,6.61,6.61,0,0,1-.68.44c-.27.15-.56.25-.85.38s-.56.17-.83.26a6.76,6.76,0,0,1-.78.17ZM95.4,3.88H90.8a3.23,3.23,0,0,0,0,.7V6.12a1.74,1.74,0,0,0,.4,0h3.66a1.28,1.28,0,0,1,0,.34V9.63H90.72v2.55H95.2a1.48,1.48,0,0,1,0,.37V16a2.08,2.08,0,0,1-.56,0L86.5,16a1.74,1.74,0,0,1,0-.46V.11a1,1,0,0,1,.25,0h8.65a1.58,1.58,0,0,1,0,.38v3.4ZM70.55,6.08h1.6a1.21,1.21,0,0,0,1.06-1,1.45,1.45,0,0,0-.11-.75,1.09,1.09,0,0,0-.77-.65,2.36,2.36,0,0,0-.6,0H70.55ZM56.75,4l-.52.06a7.36,7.36,0,0,0-.87.24,4.44,4.44,0,0,0-2.45,2.54c-.1.28-.14.59-.22.91a3.54,3.54,0,0,0,0,.47,3.86,3.86,0,0,0,.13,1.16c.05.15.06.27.11.41a4.27,4.27,0,0,0,2.4,2.49,6.06,6.06,0,0,0,.82.27c.13,0,.24,0,.38,0a1.88,1.88,0,0,0,.57,0h.24c.11,0,.24,0,.36-.05a6,6,0,0,0,.76-.2A4.35,4.35,0,0,0,60.94,10a7,7,0,0,0,.26-.88c0-.17,0-.34.06-.53a3.57,3.57,0,0,0,0-.8c0-.16,0-.33-.09-.49s-.14-.44-.22-.64a4.27,4.27,0,0,0-2.49-2.4,5.74,5.74,0,0,0-.74-.2A4.9,4.9,0,0,0,56.75,4Zm78.38,0-.52.06a6.71,6.71,0,0,0-.86.24A4.47,4.47,0,0,0,131.25,7a6.5,6.5,0,0,0-.17.79c0,.15,0,.3,0,.47a3.09,3.09,0,0,0,.14,1.16,3.71,3.71,0,0,0,.22.69,4.32,4.32,0,0,0,2.28,2.21,6.06,6.06,0,0,0,.82.27c.13,0,.25,0,.39,0a1.82,1.82,0,0,0,.56,0h.25c.11,0,.23,0,.35-.05a6.2,6.2,0,0,0,.77-.2A4.31,4.31,0,0,0,139.32,10a7,7,0,0,0,.29-1c0-.14,0-.26,0-.41a1.77,1.77,0,0,0,0-.65V7.82c0-.12,0-.26-.07-.39a7.14,7.14,0,0,0-.24-.74,4.25,4.25,0,0,0-2.48-2.4,6.21,6.21,0,0,0-.74-.2A5,5,0,0,0,135.13,4ZM70.55,9.91v2.43a3.38,3.38,0,0,0,.64,0h1.39a3.82,3.82,0,0,1,.39-.08,1.52,1.52,0,0,0,.63-.4,1.09,1.09,0,0,0,.21-.49,1.27,1.27,0,0,0-.73-1.46H70.55Z"/></g></g></svg>